<svg width="400" height="300" viewBox="0 0 400 300" fill="none" xmlns="http://www.w3.org/2000/svg">
  <rect width="400" height="300" fill="url(#gradient14)"/>
  <defs>
    <linearGradient id="gradient14" x1="0%" y1="0%" x2="100%" y2="100%">
      <stop offset="0%" style="stop-color:#047857;stop-opacity:1" />
      <stop offset="100%" style="stop-color:#065F46;stop-opacity:1" />
    </linearGradient>
  </defs>
  
  <!-- Иконка AV-коммутатора -->
  <g transform="translate(200, 150)">
    <!-- Основной корпус -->
    <rect x="-50" y="-30" width="100" height="60" rx="5" fill="white" opacity="0.9"/>
    <rect x="-45" y="-25" width="90" height="50" rx="3" fill="#1a1a1a"/>
    
    <!-- Дисплей -->
    <rect x="-35" y="-20" width="25" height="15" rx="2" fill="#047857" opacity="0.7"/>
    
    
    <!-- Кнопки управления -->
    <g transform="translate(0, -10)">
      <circle cx="-5" cy="0" r="3" fill="white" opacity="0.7"/>
      <circle cx="5" cy="0" r="3" fill="white" opacity="0.7"/>
      <circle cx="15" cy="0" r="3" fill="white" opacity="0.7"/>
    </g>
    
    <!-- Индикаторы -->
    <circle cx="-35" cy="5" r="2" fill="#10b981" opacity="0.9"/>
    <circle cx="-28" cy="5" r="2" fill="#10b981" opacity="0.9"/>
    <circle cx="-21" cy="5" r="2" fill="#ef4444" opacity="0.7"/>
    
    <!-- Порты ввода (слева) -->
    <g transform="translate(-45, 0)">
      <rect x="-5" y="-15" width="5" height="4" rx="1" fill="#047857" opacity="0.7"/>
      <rect x="-5" y="-8" width="5" height="4" rx="1" fill="#047857" opacity="0.7"/>
      <rect x="-5" y="-1" width="5" height="4" rx="1" fill="#047857" opacity="0.7"/>
      <rect x="-5" y="6" width="5" height="4" rx="1" fill="#047857" opacity="0.7"/>
      <rect x="-5" y="13" width="5" height="4" rx="1" fill="#047857" opacity="0.7"/>
    </g>
    
    <!-- Порты вывода (справа) -->
    <g transform="translate(45, 0)">
      <rect x="0" y="-15" width="5" height="4" rx="1" fill="#047857" opacity="0.7"/>
      <rect x="0" y="-8" width="5" height="4" rx="1" fill="#047857" opacity="0.7"/>
      <rect x="0" y="-1" width="5" height="4" rx="1" fill="#047857" opacity="0.7"/>
      <rect x="0" y="6" width="5" height="4" rx="1" fill="#047857" opacity="0.7"/>
    </g>
    
    <!-- Кабели подключения -->
    <g transform="translate(-60, -10)">
      <line x1="0" y1="0" x2="15" y2="0" stroke="#047857" stroke-width="2" opacity="0.6"/>
      <circle cx="0" cy="0" r="2" fill="#047857" opacity="0.8"/>
    </g>
    
    <g transform="translate(-60, 0)">
      <line x1="0" y1="0" x2="15" y2="0" stroke="#047857" stroke-width="2" opacity="0.6"/>
      <circle cx="0" cy="0" r="2" fill="#047857" opacity="0.8"/>
    </g>
    
    <g transform="translate(-60, 10)">
      <line x1="0" y1="0" x2="15" y2="0" stroke="#047857" stroke-width="2" opacity="0.6"/>
      <circle cx="0" cy="0" r="2" fill="#047857" opacity="0.8"/>
    </g>
    
    <g transform="translate(60, -5)">
      <line x1="-15" y1="0" x2="0" y2="0" stroke="#047857" stroke-width="2" opacity="0.6"/>
      <circle cx="0" cy="0" r="2" fill="#047857" opacity="0.8"/>
    </g>
    
    <g transform="translate(60, 5)">
      <line x1="-15" y1="0" x2="0" y2="0" stroke="#047857" stroke-width="2" opacity="0.6"/>
      <circle cx="0" cy="0" r="2" fill="#047857" opacity="0.8"/>
    </g>
    
    <!-- Вентиляционные отверстия -->
    <g transform="translate(20, -10)">
      <rect x="0" y="0" width="15" height="2" rx="1" fill="white" opacity="0.3"/>
      <rect x="0" y="4" width="15" height="2" rx="1" fill="white" opacity="0.3"/>
      <rect x="0" y="8" width="15" height="2" rx="1" fill="white" opacity="0.3"/>
    </g>
  </g>
  
  
</svg>