<svg width="400" height="300" viewBox="0 0 400 300" fill="none" xmlns="http://www.w3.org/2000/svg">
  <rect width="400" height="300" fill="url(#gradient15)"/>
  <defs>
    <linearGradient id="gradient15" x1="0%" y1="0%" x2="100%" y2="100%">
      <stop offset="0%" style="stop-color:#047857;stop-opacity:1" />
      <stop offset="100%" style="stop-color:#065F46;stop-opacity:1" />
    </linearGradient>
  </defs>
  
  <!-- Иконка оборудования управления -->
  <g transform="translate(200, 150)">
    <!-- Пульт управления -->
    <rect x="-40" y="-20" width="80" height="40" rx="8" fill="white" opacity="0.9"/>
    <rect x="-35" y="-15" width="70" height="30" rx="5" fill="#1a1a1a"/>
    
    <!-- Дисплей пульта -->
    <rect x="-25" y="-10" width="20" height="10" rx="2" fill="#047857" opacity="0.7"/>
    
    <!-- Кнопки пульта -->
    <g transform="translate(5, -5)">
      <circle cx="0" cy="0" r="3" fill="white" opacity="0.7"/>
      <circle cx="8" cy="0" r="3" fill="white" opacity="0.7"/>
      <circle cx="16" cy="0" r="3" fill="white" opacity="0.7"/>
      <circle cx="0" cy="8" r="3" fill="white" opacity="0.7"/>
      <circle cx="8" cy="8" r="3" fill="white" opacity="0.7"/>
      <circle cx="16" cy="8" r="3" fill="white" opacity="0.7"/>
    </g>
    
    <!-- Сенсорная панель -->
    <rect x="-30" y="25" width="60" height="15" rx="3" fill="white" opacity="0.8"/>
    <rect x="-27" y="27" width="54" height="11" rx="2" fill="#1a1a1a"/>
    
    <!-- Иконки на сенсорной панели -->
    <rect x="-20" y="29" width="8" height="7" rx="1" fill="#047857" opacity="0.6"/>
    <rect x="-8" y="29" width="8" height="7" rx="1" fill="#047857" opacity="0.6"/>
    <rect x="4" y="29" width="8" height="7" rx="1" fill="#047857" opacity="0.6"/>
    <rect x="16" y="29" width="8" height="7" rx="1" fill="#047857" opacity="0.6"/>
    
    <!-- Сигналы управления -->
    <g transform="translate(-60, 0)">
      <circle cx="0" cy="0" r="3" fill="white" opacity="0.8"/>
      <path d="M 3,0 L 8,-5 L 8,5 Z" fill="#047857" opacity="0.7"/>
    </g>
    
    <g transform="translate(60, 0)">
      <circle cx="0" cy="0" r="3" fill="white" opacity="0.8"/>
      <path d="M -3,0 L -8,-5 L -8,5 Z" fill="#047857" opacity="0.7"/>
    </g>
    
    <!-- Волны управления -->
    <path d="M -50,-10 Q -55,-15 -60,-10 Q -65,-5 -70,-10" stroke="white" stroke-width="1" fill="none" opacity="0.4"/>
    <path d="M 50,-10 Q 55,-15 60,-10 Q 65,-5 70,-10" stroke="white" stroke-width="1" fill="none" opacity="0.4"/>
    
    <!-- Индикатор подключения -->
    <circle cx="0" cy="-25" r="2" fill="#10b981" opacity="0.9"/>
    
    <!-- Антенна -->
    <line x1="0" y1="-25" x2="0" y2="-35" stroke="white" stroke-width="2" opacity="0.7"/>
    <circle cx="0" cy="-35" r="2" fill="white" opacity="0.8"/>
  </g>
  
  
</svg>