<svg width="400" height="300" viewBox="0 0 400 300" fill="none" xmlns="http://www.w3.org/2000/svg">
  <rect width="400" height="300" fill="url(#gradient10)"/>
  <defs>
    <linearGradient id="gradient10" x1="0%" y1="0%" x2="100%" y2="100%">
      <stop offset="0%" style="stop-color:#047857;stop-opacity:1" />
      <stop offset="100%" style="stop-color:#065F46;stop-opacity:1" />
    </linearGradient>
  </defs>
  
  <!-- Иконка Digital Signage -->
  <g transform="translate(200, 150)">
    <!-- Главный экран -->
    <rect x="-50" y="-35" width="100" height="70" rx="5" fill="white" opacity="0.9"/>
    <rect x="-45" y="-30" width="90" height="60" rx="3" fill="#1a1a1a"/>
    
    <!-- Контент на экране -->
    <rect x="-40" y="-25" width="80" height="15" rx="2" fill="#047857" opacity="0.7"/>
    <rect x="-40" y="-5" width="50" height="8" rx="1" fill="white" opacity="0.5"/>
    <rect x="-40" y="5" width="60" height="8" rx="1" fill="white" opacity="0.5"/>
    <rect x="-40" y="15" width="40" height="8" rx="1" fill="white" opacity="0.5"/>
    
    <!-- Боковые экраны -->
    <rect x="-75" y="-20" width="20" height="40" rx="3" fill="white" opacity="0.8"/>
    <rect x="-72" y="-17" width="14" height="34" rx="2" fill="#1a1a1a"/>
    <rect x="-70" y="-15" width="10" height="8" rx="1" fill="#047857" opacity="0.6"/>
    <rect x="-70" y="-5" width="10" height="3" rx="1" fill="white" opacity="0.4"/>
    <rect x="-70" y="0" width="10" height="3" rx="1" fill="white" opacity="0.4"/>
    
    <rect x="55" y="-20" width="20" height="40" rx="3" fill="white" opacity="0.8"/>
    <rect x="58" y="-17" width="14" height="34" rx="2" fill="#1a1a1a"/>
    <rect x="60" y="-15" width="10" height="8" rx="1" fill="#047857" opacity="0.6"/>
    <rect x="60" y="-5" width="10" height="3" rx="1" fill="white" opacity="0.4"/>
    <rect x="60" y="0" width="10" height="3" rx="1" fill="white" opacity="0.4"/>
    
    <!-- Иконка трансляции -->
    <g transform="translate(0, -50)">
      <circle cx="0" cy="0" r="8" fill="white" opacity="0.8"/>
      <polygon points="-3,-3 3,0 -3,3" fill="#047857"/>
    </g>
    
    <!-- Волны трансляции -->
    <path d="M 0,-50 Q -10,-55 -10,-65 Q -10,-75 0,-80" stroke="white" stroke-width="1" fill="none" opacity="0.4"/>
    <path d="M 0,-50 Q 10,-55 10,-65 Q 10,-75 0,-80" stroke="white" stroke-width="1" fill="none" opacity="0.4"/>
  </g>
  
  
</svg>