<svg width="400" height="300" viewBox="0 0 400 300" fill="none" xmlns="http://www.w3.org/2000/svg">
  <rect width="400" height="300" fill="url(#gradient15)"/>
  <defs>
    <linearGradient id="gradient15" x1="0%" y1="0%" x2="100%" y2="100%">
      <stop offset="0%" style="stop-color:#065F46;stop-opacity:1" />
      <stop offset="100%" style="stop-color:#047857;stop-opacity:1" />
    </linearGradient>
  </defs>
  
  <!-- Иконка интерактивной панели -->
  <g transform="translate(200, 150)">
    <!-- Основной корпус панели -->
    <rect x="-70" y="-50" width="140" height="90" rx="8" fill="white" opacity="0.9"/>
    <rect x="-65" y="-45" width="130" height="80" rx="5" fill="#1a1a1a"/>
    
    <!-- Экран интерактивной панели -->
    <rect x="-60" y="-40" width="120" height="70" rx="3" fill="#333"/>
    
    <!-- Интерактивные элементы на экране -->
    <!-- Кнопки интерфейса -->
    <rect x="-55" y="-35" width="25" height="15" rx="3" fill="#047857" opacity="0.7"/>
    <rect x="-25" y="-35" width="25" height="15" rx="3" fill="#065F46" opacity="0.7"/>
    <rect x="5" y="-35" width="25" height="15" rx="3" fill="#047857" opacity="0.7"/>
    <rect x="35" y="-35" width="20" height="15" rx="3" fill="#065F46" opacity="0.7"/>
    
    <!-- Рабочая область с контентом -->
    <rect x="-55" y="-15" width="110" height="40" rx="3" fill="#4a5568"/>
    
    <!-- График на экране -->
    <polyline points="-50,5 -40,0 -30,10 -20,-5 -10,15 0,0 10,5 20,-10 30,0 40,5 50,-5" 
              stroke="#10b981" stroke-width="2" fill="none" opacity="0.8"/>
    
    <!-- Точки касания -->
    <circle cx="-30" cy="10" r="3" fill="#fbbf24" opacity="0.8"/>
    <circle cx="10" cy="0" r="3" fill="#fbbf24" opacity="0.8"/>
    <circle cx="40" cy="5" r="3" fill="#fbbf24" opacity="0.8"/>
    
    <!-- Рука указывающая на экран -->
    <g transform="translate(80, -10)">
      <!-- Кисть руки -->
      <ellipse cx="0" cy="0" rx="8" ry="12" fill="white" opacity="0.9"/>
      
      <!-- Палец указывающий -->
      <rect x="-3" y="-20" width="6" height="20" rx="3" fill="white" opacity="0.9"/>
      <circle cx="0" cy="-22" r="4" fill="white" opacity="0.9"/>
      
      <!-- Остальные пальцы -->
      <rect x="-8" y="-5" width="4" height="12" rx="2" fill="white" opacity="0.8"/>
      <rect x="4" y="-5" width="4" height="12" rx="2" fill="white" opacity="0.8"/>
      <rect x="-6" y="5" width="4" height="10" rx="2" fill="white" opacity="0.8"/>
      <rect x="2" y="5" width="4" height="10" rx="2" fill="white" opacity="0.8"/>
      
      <!-- Большой палец -->
      <ellipse cx="-10" cy="0" rx="3" ry="6" fill="white" opacity="0.8"/>
    </g>
    
    <!-- Линия от пальца к точке касания -->
    <line x1="65" y1="-20" x2="40" y2="5" stroke="#fbbf24" stroke-width="2" opacity="0.6"/>
    
    <!-- Кнопки управления панелью -->
    <circle cx="-50" cy="40" r="3" fill="white" opacity="0.8"/>
    <circle cx="-40" cy="40" r="3" fill="white" opacity="0.8"/>
    <circle cx="-30" cy="40" r="3" fill="white" opacity="0.8"/>
    
    <!-- Индикатор питания -->
    <circle cx="50" cy="40" r="3" fill="#10b981" opacity="0.9"/>
    
    <!-- Подставка -->
    <rect x="-20" y="45" width="40" height="8" rx="4" fill="white" opacity="0.8"/>
    <rect x="-10" y="53" width="20" height="15" rx="3" fill="white" opacity="0.8"/>
    <rect x="-15" y="68" width="30" height="5" rx="2" fill="white" opacity="0.8"/>
    
    <!-- Подключения -->
    <rect x="-5" y="73" width="10" height="6" rx="2" fill="white" opacity="0.7"/>
    <circle cx="0" cy="76" r="2" fill="#047857"/>
  </g>
</svg>