<svg width="400" height="300" viewBox="0 0 400 300" fill="none" xmlns="http://www.w3.org/2000/svg">
  <rect width="400" height="300" fill="url(#gradient13)"/>
  <defs>
    <linearGradient id="gradient13" x1="0%" y1="0%" x2="100%" y2="100%">
      <stop offset="0%" style="stop-color:#065F46;stop-opacity:1" />
      <stop offset="100%" style="stop-color:#047857;stop-opacity:1" />
    </linearGradient>
  </defs>
  
  <!-- Иконка LED экрана -->
  <g transform="translate(200, 150)">
    <!-- Рамка LED экрана -->
    <rect x="-80" y="-50" width="160" height="90" rx="8" fill="white" opacity="0.9"/>
    <rect x="-75" y="-45" width="150" height="80" rx="5" fill="#1a1a1a"/>
    
    <!-- LED пиксели -->
    <!-- Верхний ряд пикселей -->
    <circle cx="-65" cy="-35" r="3" fill="#ff0000" opacity="0.8"/>
    <circle cx="-55" cy="-35" r="3" fill="#00ff00" opacity="0.8"/>
    <circle cx="-45" cy="-35" r="3" fill="#0000ff" opacity="0.8"/>
    <circle cx="-35" cy="-35" r="3" fill="#ff0000" opacity="0.8"/>
    <circle cx="-25" cy="-35" r="3" fill="#00ff00" opacity="0.8"/>
    <circle cx="-15" cy="-35" r="3" fill="#0000ff" opacity="0.8"/>
    <circle cx="-5" cy="-35" r="3" fill="#ff0000" opacity="0.8"/>
    <circle cx="5" cy="-35" r="3" fill="#00ff00" opacity="0.8"/>
    <circle cx="15" cy="-35" r="3" fill="#0000ff" opacity="0.8"/>
    <circle cx="25" cy="-35" r="3" fill="#ff0000" opacity="0.8"/>
    <circle cx="35" cy="-35" r="3" fill="#00ff00" opacity="0.8"/>
    <circle cx="45" cy="-35" r="3" fill="#0000ff" opacity="0.8"/>
    <circle cx="55" cy="-35" r="3" fill="#ff0000" opacity="0.8"/>
    <circle cx="65" cy="-35" r="3" fill="#00ff00" opacity="0.8"/>
    
    <!-- Второй ряд пикселей -->
    <circle cx="-65" cy="-25" r="3" fill="#00ff00" opacity="0.8"/>
    <circle cx="-55" cy="-25" r="3" fill="#0000ff" opacity="0.8"/>
    <circle cx="-45" cy="-25" r="3" fill="#ff0000" opacity="0.8"/>
    <circle cx="-35" cy="-25" r="3" fill="#00ff00" opacity="0.8"/>
    <circle cx="-25" cy="-25" r="3" fill="#0000ff" opacity="0.8"/>
    <circle cx="-15" cy="-25" r="3" fill="#ff0000" opacity="0.8"/>
    <circle cx="-5" cy="-25" r="3" fill="#00ff00" opacity="0.8"/>
    <circle cx="5" cy="-25" r="3" fill="#0000ff" opacity="0.8"/>
    <circle cx="15" cy="-25" r="3" fill="#ff0000" opacity="0.8"/>
    <circle cx="25" cy="-25" r="3" fill="#00ff00" opacity="0.8"/>
    <circle cx="35" cy="-25" r="3" fill="#0000ff" opacity="0.8"/>
    <circle cx="45" cy="-25" r="3" fill="#ff0000" opacity="0.8"/>
    <circle cx="55" cy="-25" r="3" fill="#00ff00" opacity="0.8"/>
    <circle cx="65" cy="-25" r="3" fill="#0000ff" opacity="0.8"/>
    
    <!-- Третий ряд пикселей -->
    <circle cx="-65" cy="-15" r="3" fill="#0000ff" opacity="0.8"/>
    <circle cx="-55" cy="-15" r="3" fill="#ff0000" opacity="0.8"/>
    <circle cx="-45" cy="-15" r="3" fill="#00ff00" opacity="0.8"/>
    <circle cx="-35" cy="-15" r="3" fill="#0000ff" opacity="0.8"/>
    <circle cx="-25" cy="-15" r="3" fill="#ff0000" opacity="0.8"/>
    <circle cx="-15" cy="-15" r="3" fill="#00ff00" opacity="0.8"/>
    <circle cx="-5" cy="-15" r="3" fill="#0000ff" opacity="0.8"/>
    <circle cx="5" cy="-15" r="3" fill="#ff0000" opacity="0.8"/>
    <circle cx="15" cy="-15" r="3" fill="#00ff00" opacity="0.8"/>
    <circle cx="25" cy="-15" r="3" fill="#0000ff" opacity="0.8"/>
    <circle cx="35" cy="-15" r="3" fill="#ff0000" opacity="0.8"/>
    <circle cx="45" cy="-15" r="3" fill="#00ff00" opacity="0.8"/>
    <circle cx="55" cy="-15" r="3" fill="#0000ff" opacity="0.8"/>
    <circle cx="65" cy="-15" r="3" fill="#ff0000" opacity="0.8"/>
    
    <!-- Четвертый ряд пикселей -->
    <circle cx="-65" cy="-5" r="3" fill="#ff0000" opacity="0.8"/>
    <circle cx="-55" cy="-5" r="3" fill="#00ff00" opacity="0.8"/>
    <circle cx="-45" cy="-5" r="3" fill="#0000ff" opacity="0.8"/>
    <circle cx="-35" cy="-5" r="3" fill="#ff0000" opacity="0.8"/>
    <circle cx="-25" cy="-5" r="3" fill="#00ff00" opacity="0.8"/>
    <circle cx="-15" cy="-5" r="3" fill="#0000ff" opacity="0.8"/>
    <circle cx="-5" cy="-5" r="3" fill="#ff0000" opacity="0.8"/>
    <circle cx="5" cy="-5" r="3" fill="#00ff00" opacity="0.8"/>
    <circle cx="15" cy="-5" r="3" fill="#0000ff" opacity="0.8"/>
    <circle cx="25" cy="-5" r="3" fill="#ff0000" opacity="0.8"/>
    <circle cx="35" cy="-5" r="3" fill="#00ff00" opacity="0.8"/>
    <circle cx="45" cy="-5" r="3" fill="#0000ff" opacity="0.8"/>
    <circle cx="55" cy="-5" r="3" fill="#ff0000" opacity="0.8"/>
    <circle cx="65" cy="-5" r="3" fill="#00ff00" opacity="0.8"/>
    
    <!-- Пятый ряд пикселей -->
    <circle cx="-65" cy="5" r="3" fill="#00ff00" opacity="0.8"/>
    <circle cx="-55" cy="5" r="3" fill="#0000ff" opacity="0.8"/>
    <circle cx="-45" cy="5" r="3" fill="#ff0000" opacity="0.8"/>
    <circle cx="-35" cy="5" r="3" fill="#00ff00" opacity="0.8"/>
    <circle cx="-25" cy="5" r="3" fill="#0000ff" opacity="0.8"/>
    <circle cx="-15" cy="5" r="3" fill="#ff0000" opacity="0.8"/>
    <circle cx="-5" cy="5" r="3" fill="#00ff00" opacity="0.8"/>
    <circle cx="5" cy="5" r="3" fill="#0000ff" opacity="0.8"/>
    <circle cx="15" cy="5" r="3" fill="#ff0000" opacity="0.8"/>
    <circle cx="25" cy="5" r="3" fill="#00ff00" opacity="0.8"/>
    <circle cx="35" cy="5" r="3" fill="#0000ff" opacity="0.8"/>
    <circle cx="45" cy="5" r="3" fill="#ff0000" opacity="0.8"/>
    <circle cx="55" cy="5" r="3" fill="#00ff00" opacity="0.8"/>
    <circle cx="65" cy="5" r="3" fill="#0000ff" opacity="0.8"/>
    
    <!-- Контроллер -->
    <rect x="-10" y="45" width="20" height="10" rx="3" fill="white" opacity="0.8"/>
    <circle cx="-5" cy="50" r="2" fill="#047857"/>
    <circle cx="0" cy="50" r="2" fill="#fbbf24"/>
    <circle cx="5" cy="50" r="2" fill="#10b981"/>
    
    <!-- Подключения -->
    <rect x="-3" y="55" width="6" height="8" rx="2" fill="white" opacity="0.7"/>
    <line x1="0" y1="63" x2="0" y2="70" stroke="white" stroke-width="2" opacity="0.7"/>
  </g>
</svg>