<svg width="400" height="300" viewBox="0 0 400 300" fill="none" xmlns="http://www.w3.org/2000/svg">
  <rect width="400" height="300" fill="url(#gradient_led)"/>
  <defs>
    <linearGradient id="gradient_led" x1="0%" y1="0%" x2="100%" y2="100%">
      <stop offset="0%" style="stop-color:#047857;stop-opacity:1" />
      <stop offset="100%" style="stop-color:#065F46;stop-opacity:1" />
    </linearGradient>
  </defs>
  
  <!-- Иконка LED экрана -->
  <g transform="translate(200, 150)">
    <!-- Рамка экрана -->
    <rect x="-75" y="-35" width="150" height="70" rx="8" fill="white" opacity="0.9"/>
    <rect x="-70" y="-30" width="140" height="60" rx="5" fill="#1a1a1a"/>
    
    <!-- LED пиксели -->
    <circle cx="-60" cy="-20" r="2" fill="#ff0000" opacity="0.8"/>
    <circle cx="-50" cy="-20" r="2" fill="#00ff00" opacity="0.8"/>
    <circle cx="-40" cy="-20" r="2" fill="#0000ff" opacity="0.8"/>
    <circle cx="-30" cy="-20" r="2" fill="#ff0000" opacity="0.8"/>
    <circle cx="-20" cy="-20" r="2" fill="#00ff00" opacity="0.8"/>
    <circle cx="-10" cy="-20" r="2" fill="#0000ff" opacity="0.8"/>
    <circle cx="0" cy="-20" r="2" fill="#ff0000" opacity="0.8"/>
    <circle cx="10" cy="-20" r="2" fill="#00ff00" opacity="0.8"/>
    <circle cx="20" cy="-20" r="2" fill="#0000ff" opacity="0.8"/>
    <circle cx="30" cy="-20" r="2" fill="#ff0000" opacity="0.8"/>
    <circle cx="40" cy="-20" r="2" fill="#00ff00" opacity="0.8"/>
    <circle cx="50" cy="-20" r="2" fill="#0000ff" opacity="0.8"/>
    <circle cx="60" cy="-20" r="2" fill="#ff0000" opacity="0.8"/>
    
    <circle cx="-60" cy="-10" r="2" fill="#00ff00" opacity="0.8"/>
    <circle cx="-50" cy="-10" r="2" fill="#0000ff" opacity="0.8"/>
    <circle cx="-40" cy="-10" r="2" fill="#ff0000" opacity="0.8"/>
    <circle cx="-30" cy="-10" r="2" fill="#00ff00" opacity="0.8"/>
    <circle cx="-20" cy="-10" r="2" fill="#0000ff" opacity="0.8"/>
    <circle cx="-10" cy="-10" r="2" fill="#ff0000" opacity="0.8"/>
    <circle cx="0" cy="-10" r="2" fill="#00ff00" opacity="0.8"/>
    <circle cx="10" cy="-10" r="2" fill="#0000ff" opacity="0.8"/>
    <circle cx="20" cy="-10" r="2" fill="#ff0000" opacity="0.8"/>
    <circle cx="30" cy="-10" r="2" fill="#00ff00" opacity="0.8"/>
    <circle cx="40" cy="-10" r="2" fill="#0000ff" opacity="0.8"/>
    <circle cx="50" cy="-10" r="2" fill="#ff0000" opacity="0.8"/>
    <circle cx="60" cy="-10" r="2" fill="#00ff00" opacity="0.8"/>
    
    <circle cx="-60" cy="0" r="2" fill="#0000ff" opacity="0.8"/>
    <circle cx="-50" cy="0" r="2" fill="#ff0000" opacity="0.8"/>
    <circle cx="-40" cy="0" r="2" fill="#00ff00" opacity="0.8"/>
    <circle cx="-30" cy="0" r="2" fill="#0000ff" opacity="0.8"/>
    <circle cx="-20" cy="0" r="2" fill="#ff0000" opacity="0.8"/>
    <circle cx="-10" cy="0" r="2" fill="#00ff00" opacity="0.8"/>
    <circle cx="0" cy="0" r="2" fill="#0000ff" opacity="0.8"/>
    <circle cx="10" cy="0" r="2" fill="#ff0000" opacity="0.8"/>
    <circle cx="20" cy="0" r="2" fill="#00ff00" opacity="0.8"/>
    <circle cx="30" cy="0" r="2" fill="#0000ff" opacity="0.8"/>
    <circle cx="40" cy="0" r="2" fill="#ff0000" opacity="0.8"/>
    <circle cx="50" cy="0" r="2" fill="#00ff00" opacity="0.8"/>
    <circle cx="60" cy="0" r="2" fill="#0000ff" opacity="0.8"/>
    
    <circle cx="-60" cy="10" r="2" fill="#ff0000" opacity="0.8"/>
    <circle cx="-50" cy="10" r="2" fill="#00ff00" opacity="0.8"/>
    <circle cx="-40" cy="10" r="2" fill="#0000ff" opacity="0.8"/>
    <circle cx="-30" cy="10" r="2" fill="#ff0000" opacity="0.8"/>
    <circle cx="-20" cy="10" r="2" fill="#00ff00" opacity="0.8"/>
    <circle cx="-10" cy="10" r="2" fill="#0000ff" opacity="0.8"/>
    <circle cx="0" cy="10" r="2" fill="#ff0000" opacity="0.8"/>
    <circle cx="10" cy="10" r="2" fill="#00ff00" opacity="0.8"/>
    <circle cx="20" cy="10" r="2" fill="#0000ff" opacity="0.8"/>
    <circle cx="30" cy="10" r="2" fill="#ff0000" opacity="0.8"/>
    <circle cx="40" cy="10" r="2" fill="#00ff00" opacity="0.8"/>
    <circle cx="50" cy="10" r="2" fill="#0000ff" opacity="0.8"/>
    <circle cx="60" cy="10" r="2" fill="#ff0000" opacity="0.8"/>
    
    <!-- Подставка -->
    <rect x="-15" y="35" width="30" height="6" rx="2" fill="white" opacity="0.9"/>
    <rect x="-20" y="41" width="40" height="3" rx="1" fill="#1a1a1a"/>
  </g>
  
  <!-- Текст -->
  <!-- <text x="200" y="270" font-family="Arial, sans-serif" font-size="18" font-weight="bold" fill="white" text-anchor="middle">
    Светодиодные экраны
  </text> -->
  
</svg>