<svg width="400" height="300" viewBox="0 0 400 300" fill="none" xmlns="http://www.w3.org/2000/svg">
  <rect width="400" height="300" fill="url(#gradient17)"/>
  <defs>
    <linearGradient id="gradient17" x1="0%" y1="0%" x2="100%" y2="100%">
      <stop offset="0%" style="stop-color:#047857;stop-opacity:1" />
      <stop offset="100%" style="stop-color:#065F46;stop-opacity:1" />
    </linearGradient>
  </defs>
  
  <!-- Иконка светового оборудования -->
  <g transform="translate(200, 150)">
    <!-- Прожектор -->
    <rect x="-30" y="-20" width="60" height="35" rx="8" fill="white" opacity="0.9"/>
    <rect x="-25" y="-15" width="50" height="25" rx="5" fill="#1a1a1a"/>
    
    <!-- Линза прожектора -->
    <circle cx="20" cy="-2" r="10" fill="white" opacity="0.9"/>
    <circle cx="20" cy="-2" r="8" fill="#1a1a1a"/>
    <circle cx="20" cy="-2" r="6" fill="#047857" opacity="0.7"/>
    <circle cx="20" cy="-2" r="3" fill="#1a1a1a"/>
    
    <!-- Световой луч -->
    <polygon points="30,-2 60,-15 60,11" fill="white" opacity="0.3"/>
    <polygon points="30,-2 55,-12 55,8" fill="white" opacity="0.2"/>
    
    <!-- Крепление -->
    <rect x="-5" y="-25" width="10" height="8" rx="2" fill="white" opacity="0.8"/>
    <circle cx="0" cy="-28" r="3" fill="white" opacity="0.8"/>
    
    <!-- Светодиодная лента -->
    <rect x="-40" y="20" width="80" height="8" rx="4" fill="white" opacity="0.8"/>
    
    <!-- Светодиоды -->
    <g transform="translate(-35, 24)">
      <circle cx="0" cy="0" r="2" fill="#ef4444" opacity="0.9"/>
      <circle cx="8" cy="0" r="2" fill="#10b981" opacity="0.9"/>
      <circle cx="16" cy="0" r="2" fill="#3b82f6" opacity="0.9"/>
      <circle cx="24" cy="0" r="2" fill="#ef4444" opacity="0.9"/>
      <circle cx="32" cy="0" r="2" fill="#10b981" opacity="0.9"/>
      <circle cx="40" cy="0" r="2" fill="#3b82f6" opacity="0.9"/>
      <circle cx="48" cy="0" r="2" fill="#ef4444" opacity="0.9"/>
      <circle cx="56" cy="0" r="2" fill="#10b981" opacity="0.9"/>
      <circle cx="64" cy="0" r="2" fill="#3b82f6" opacity="0.9"/>
      <circle cx="72" cy="0" r="2" fill="#ef4444" opacity="0.9"/>
    </g>
    
    <!-- Световые волны от ленты -->
    <g transform="translate(-35, 24)">
      <path d="M 0,0 Q -3,-5 -6,0 Q -9,5 -12,0" stroke="#ef4444" stroke-width="1" fill="none" opacity="0.4"/>
      <path d="M 8,0 Q 5,-5 2,0 Q -1,5 -4,0" stroke="#10b981" stroke-width="1" fill="none" opacity="0.4"/>
      <path d="M 16,0 Q 13,-5 10,0 Q 7,5 4,0" stroke="#3b82f6" stroke-width="1" fill="none" opacity="0.4"/>
    </g>
    
    <!-- Пульт управления светом -->
    <g transform="translate(0, -45)">
      <rect x="-20" y="-5" width="40" height="15" rx="3" fill="white" opacity="0.8"/>
      <rect x="-17" y="-2" width="34" height="9" rx="2" fill="#1a1a1a"/>
      
      <!-- Кнопки на пульте -->
      <circle cx="-10" cy="2" r="2" fill="#ef4444" opacity="0.8"/>
      <circle cx="-3" cy="2" r="2" fill="#10b981" opacity="0.8"/>
      <circle cx="4" cy="2" r="2" fill="#3b82f6" opacity="0.8"/>
      <circle cx="11" cy="2" r="2" fill="white" opacity="0.7"/>
    </g>
    
    <!-- Антенна на пульте -->
    <line x1="0" y1="-50" x2="0" y2="-58" stroke="white" stroke-width="1" opacity="0.7"/>
    <circle cx="0" cy="-58" r="1.5" fill="white" opacity="0.8"/>
  </g>
  
  
</svg>