<svg width="400" height="300" viewBox="0 0 400 300" fill="none" xmlns="http://www.w3.org/2000/svg">
  <rect width="400" height="300" fill="url(#gradient5)"/>
  <defs>
    <linearGradient id="gradient5" x1="0%" y1="0%" x2="100%" y2="100%">
      <stop offset="0%" style="stop-color:#047857;stop-opacity:1" />
      <stop offset="100%" style="stop-color:#065F46;stop-opacity:1" />
    </linearGradient>
  </defs>
  
  <!-- Иконка микрофона -->
  <g transform="translate(200, 150)">
    <!-- Основание микрофона -->
    <rect x="-8" y="20" width="16" height="40" rx="3" fill="white" opacity="0.9"/>
    <rect x="-5" y="25" width="10" height="30" rx="2" fill="#047857"/>
    
    <!-- Головка микрофона -->
    <ellipse cx="0" cy="-10" rx="20" ry="30" fill="white" opacity="0.9"/>
    <ellipse cx="0" cy="-10" rx="15" ry="25" fill="#065F46"/>
    
    <!-- Сетка микрофона -->
    <line x1="-10" y1="-20" x2="10" y2="-20" stroke="white" stroke-width="1" opacity="0.5"/>
    <line x1="-10" y1="-10" x2="10" y2="-10" stroke="white" stroke-width="1" opacity="0.5"/>
    <line x1="-10" y1="0" x2="10" y2="0" stroke="white" stroke-width="1" opacity="0.5"/>
    <line x1="-5" y1="-25" x2="-5" y2="5" stroke="white" stroke-width="1" opacity="0.5"/>
    <line x1="0" y1="-25" x2="0" y2="5" stroke="white" stroke-width="1" opacity="0.5"/>
    <line x1="5" y1="-25" x2="5" y2="5" stroke="white" stroke-width="1" opacity="0.5"/>
    
    <!-- Подставка -->
    <rect x="-15" y="60" width="30" height="8" rx="2" fill="white" opacity="0.8"/>
    
    <!-- Звуковые волны -->
    <circle cx="-30" cy="-10" r="3" fill="none" stroke="white" stroke-width="2" opacity="0.6"/>
    <circle cx="-40" cy="-10" r="5" fill="none" stroke="white" stroke-width="2" opacity="0.4"/>
    <circle cx="30" cy="-10" r="3" fill="none" stroke="white" stroke-width="2" opacity="0.6"/>
    <circle cx="40" cy="-10" r="5" fill="none" stroke="white" stroke-width="2" opacity="0.4"/>
  </g>
  
  
</svg>