<svg width="400" height="300" viewBox="0 0 400 300" fill="none" xmlns="http://www.w3.org/2000/svg">
  <rect width="400" height="300" fill="url(#gradient19)"/>
  <defs>
    <linearGradient id="gradient19" x1="0%" y1="0%" x2="100%" y2="100%">
      <stop offset="0%" style="stop-color:#047857;stop-opacity:1" />
      <stop offset="100%" style="stop-color:#065F46;stop-opacity:1" />
    </linearGradient>
  </defs>
  
  <!-- Иконка креплений -->
  <g transform="translate(200, 150)">
    <!-- Настенное крепление для проектора -->
    <g transform="translate(-30, -20)">
      <rect x="-3" y="0" width="6" height="25" rx="2" fill="white" opacity="0.9"/>
      <rect x="-8" y="25" width="16" height="4" rx="2" fill="white" opacity="0.8"/>
      
      <!-- Крепежные отверстия -->
      <circle cx="0" cy="5" r="1.5" fill="#1a1a1a"/>
      <circle cx="0" cy="12" r="1.5" fill="#1a1a1a"/>
      <circle cx="0" cy="19" r="1.5" fill="#1a1a1a"/>
      
      <!-- Проектор на креплении -->
      <rect x="-10" y="-8" width="20" height="8" rx="3" fill="white" opacity="0.9"/>
      <rect x="-8" y="-6" width="16" height="4" rx="2" fill="#1a1a1a"/>
      <circle cx="-5" cy="-4" r="1" fill="#047857" opacity="0.7"/>
      <circle cx="5" cy="-4" r="1" fill="#047857" opacity="0.7"/>
    </g>
    
    <!-- Потолочное крепление для динамика -->
    <g transform="translate(30, -20)">
      <rect x="-2" y="0" width="4" height="20" rx="2" fill="white" opacity="0.9"/>
      <circle cx="0" cy="0" r="4" fill="white" opacity="0.9"/>
      <circle cx="0" cy="0" r="2" fill="#1a1a1a"/>
      
      <!-- Динамик на креплении -->
      <circle cx="0" cy="25" r="8" fill="white" opacity="0.9"/>
      <circle cx="0" cy="25" r="6" fill="#1a1a1a"/>
      <circle cx="0" cy="25" r="4" fill="#047857" opacity="0.7"/>
      <circle cx="0" cy="25" r="2" fill="#1a1a1a"/>
    </g>
    
    <!-- Напольная стойка -->
    <g transform="translate(0, 20)">
      <rect x="-2" y="-20" width="4" height="40" rx="2" fill="white" opacity="0.9"/>
      <rect x="-8" y="18" width="16" height="4" rx="2" fill="white" opacity="0.8"/>
      
      <!-- Кронштейн на стойке -->
      <rect x="-15" y="-10" width="30" height="4" rx="2" fill="white" opacity="0.8"/>
      <rect x="-12" y="-8" width="24" height="2" rx="1" fill="white" opacity="0.7"/>
      
      <!-- Экран на кронштейне -->
      <rect x="-10" y="-20" width="20" height="10" rx="2" fill="white" opacity="0.9"/>
      <rect x="-8" y="-18" width="16" height="6" rx="1" fill="#1a1a1a"/>
      <rect x="-6" y="-16" width="12" height="2" rx="1" fill="#047857" opacity="0.6"/>
    </g>
    
    <!-- Кронштейн для телевизора -->
    <g transform="translate(-50, 10)">
      <rect x="-2" y="-15" width="4" height="30" rx="2" fill="white" opacity="0.9"/>
      <rect x="-15" y="-10" width="30" height="20" rx="3" fill="white" opacity="0.9"/>
      <rect x="-13" y="-8" width="26" height="16" rx="2" fill="#1a1a1a"/>
      
      <!-- Крепежные отверстия -->
      <circle cx="-8" cy="-3" r="1" fill="#1a1a1a"/>
      <circle cx="8" cy="-3" r="1" fill="#1a1a1a"/>
      <circle cx="-8" cy="3" r="1" fill="#1a1a1a"/>
      <circle cx="8" cy="3" r="1" fill="#1a1a1a"/>
    </g>
    
    <!-- Полка для оборудования -->
    <g transform="translate(50, 10)">
      <rect x="-15" y="0" width="30" height="3" rx="1" fill="white" opacity="0.9"/>
      <rect x="-12" y="-10" width="3" height="10" rx="1" fill="white" opacity="0.8"/>
      <rect x="9" y="-10" width="3" height="10" rx="1" fill="white" opacity="0.8"/>
      
      <!-- Оборудование на полке -->
      <rect x="-10" y="-8" width="20" height="8" rx="2" fill="white" opacity="0.9"/>
      <rect x="-8" y="-6" width="16" height="4" rx="1" fill="#1a1a1a"/>
      <circle cx="-5" cy="-4" r="1" fill="#047857" opacity="0.7"/>
      <circle cx="0" cy="-4" r="1" fill="#047857" opacity="0.7"/>
      <circle cx="5" cy="-4" r="1" fill="#047857" opacity="0.7"/>
    </g>
    
    <!-- Винты и болты -->
    <g transform="translate(-20, -35)">
      <circle cx="0" cy="0" r="2" fill="white" opacity="0.8"/>
      <line x1="-1" y1="0" x2="1" y2="0" stroke="#1a1a1a" stroke-width="0.5"/>
      <line x1="0" y1="-1" x2="0" y2="1" stroke="#1a1a1a" stroke-width="0.5"/>
    </g>
    
    <g transform="translate(20, -35)">
      <circle cx="0" cy="0" r="2" fill="white" opacity="0.8"/>
      <line x1="-1" y1="0" x2="1" y2="0" stroke="#1a1a1a" stroke-width="0.5"/>
    </g>
  </g>
  
  
</svg>