<svg width="400" height="300" viewBox="0 0 400 300" fill="none" xmlns="http://www.w3.org/2000/svg">
  <rect width="400" height="300" fill="url(#gradient19)"/>
  <defs>
    <linearGradient id="gradient19" x1="0%" y1="0%" x2="100%" y2="100%">
      <stop offset="0%" style="stop-color:#047857;stop-opacity:1" />
      <stop offset="100%" style="stop-color:#065F46;stop-opacity:1" />
    </linearGradient>
  </defs>
  
  <!-- Иконка уличного LED экрана -->
  <g transform="translate(200, 150)">
    <!-- Защитный корпус уличного экрана -->
    <rect x="-75" y="-50" width="150" height="90" rx="10" fill="#2a2a2a" opacity="0.9"/>
    <rect x="-70" y="-45" width="140" height="80" rx="8" fill="#1a1a1a"/>
    
    <!-- Влагозащитные уплотнители -->
    <rect x="-70" y="-45" width="140" height="5" fill="#444" opacity="0.8"/>
    <rect x="-70" y="30" width="140" height="5" fill="#444" opacity="0.8"/>
    <rect x="-70" y="-45" width="5" height="80" fill="#444" opacity="0.8"/>
    <rect x="65" y="-45" width="5" height="80" fill="#444" opacity="0.8"/>
    
    <!-- Крупные пиксели для уличного экрана -->
    <!-- Верхний ряд -->
    <circle cx="-55" cy="-30" r="4" fill="#ff0000" opacity="0.9"/>
    <circle cx="-45" cy="-30" r="4" fill="#00ff00" opacity="0.9"/>
    <circle cx="-35" cy="-30" r="4" fill="#0000ff" opacity="0.9"/>
    <circle cx="-25" cy="-30" r="4" fill="#ffff00" opacity="0.9"/>
    <circle cx="-15" cy="-30" r="4" fill="#ff00ff" opacity="0.9"/>
    <circle cx="-5" cy="-30" r="4" fill="#00ffff" opacity="0.9"/>
    <circle cx="5" cy="-30" r="4" fill="#ff0000" opacity="0.9"/>
    <circle cx="15" cy="-30" r="4" fill="#00ff00" opacity="0.9"/>
    <circle cx="25" cy="-30" r="4" fill="#0000ff" opacity="0.9"/>
    <circle cx="35" cy="-30" r="4" fill="#ffff00" opacity="0.9"/>
    <circle cx="45" cy="-30" r="4" fill="#ff00ff" opacity="0.9"/>
    <circle cx="55" cy="-30" r="4" fill="#00ffff" opacity="0.9"/>
    
    <!-- Второй ряд -->
    <circle cx="-55" cy="-15" r="4" fill="#00ff00" opacity="0.9"/>
    <circle cx="-45" cy="-15" r="4" fill="#0000ff" opacity="0.9"/>
    <circle cx="-35" cy="-15" r="4" fill="#ffff00" opacity="0.9"/>
    <circle cx="-25" cy="-15" r="4" fill="#ff00ff" opacity="0.9"/>
    <circle cx="-15" cy="-15" r="4" fill="#00ffff" opacity="0.9"/>
    <circle cx="-5" cy="-15" r="4" fill="#ff0000" opacity="0.9"/>
    <circle cx="5" cy="-15" r="4" fill="#00ff00" opacity="0.9"/>
    <circle cx="15" cy="-15" r="4" fill="#0000ff" opacity="0.9"/>
    <circle cx="25" cy="-15" r="4" fill="#ffff00" opacity="0.9"/>
    <circle cx="35" cy="-15" r="4" fill="#ff00ff" opacity="0.9"/>
    <circle cx="45" cy="-15" r="4" fill="#00ffff" opacity="0.9"/>
    <circle cx="55" cy="-15" r="4" fill="#ff0000" opacity="0.9"/>
    
    <!-- Третий ряд -->
    <circle cx="-55" cy="0" r="4" fill="#0000ff" opacity="0.9"/>
    <circle cx="-45" cy="0" r="4" fill="#ffff00" opacity="0.9"/>
    <circle cx="-35" cy="0" r="4" fill="#ff00ff" opacity="0.9"/>
    <circle cx="-25" cy="0" r="4" fill="#00ffff" opacity="0.9"/>
    <circle cx="-15" cy="0" r="4" fill="#ff0000" opacity="0.9"/>
    <circle cx="-5" cy="0" r="4" fill="#00ff00" opacity="0.9"/>
    <circle cx="5" cy="0" r="4" fill="#0000ff" opacity="0.9"/>
    <circle cx="15" cy="0" r="4" fill="#ffff00" opacity="0.9"/>
    <circle cx="25" cy="0" r="4" fill="#ff00ff" opacity="0.9"/>
    <circle cx="35" cy="0" r="4" fill="#00ffff" opacity="0.9"/>
    <circle cx="45" cy="0" r="4" fill="#ff0000" opacity="0.9"/>
    <circle cx="55" cy="0" r="4" fill="#00ff00" opacity="0.9"/>
    
    <!-- Четвертый ряд -->
    <circle cx="-55" cy="15" r="4" fill="#ffff00" opacity="0.9"/>
    <circle cx="-45" cy="15" r="4" fill="#ff00ff" opacity="0.9"/>
    <circle cx="-35" cy="15" r="4" fill="#00ffff" opacity="0.9"/>
    <circle cx="-25" cy="15" r="4" fill="#ff0000" opacity="0.9"/>
    <circle cx="-15" cy="15" r="4" fill="#00ff00" opacity="0.9"/>
    <circle cx="-5" cy="15" r="4" fill="#0000ff" opacity="0.9"/>
    <circle cx="5" cy="15" r="4" fill="#ffff00" opacity="0.9"/>
    <circle cx="15" cy="15" r="4" fill="#ff00ff" opacity="0.9"/>
    <circle cx="25" cy="15" r="4" fill="#00ffff" opacity="0.9"/>
    <circle cx="35" cy="15" r="4" fill="#ff0000" opacity="0.9"/>
    <circle cx="45" cy="15" r="4" fill="#00ff00" opacity="0.9"/>
    <circle cx="55" cy="15" r="4" fill="#0000ff" opacity="0.9"/>
    
    <!-- Вентиляционные отверстия -->
    <rect x="-80" y="-20" width="5" height="40" rx="2" fill="#333" opacity="0.7"/>
    <rect x="75" y="-20" width="5" height="40" rx="2" fill="#333" opacity="0.7"/>
    
    <!-- Защитная крышка сверху -->
    <rect x="-80" y="-55" width="160" height="8" rx="4" fill="#444" opacity="0.9"/>
    
    <!-- Датчики освещения -->
    <circle cx="0" cy="-50" r="3" fill="#fbbf24" opacity="0.8"/>
    
    <!-- Индикаторы работы -->
    <circle cx="-60" cy="45" r="2" fill="#10b981" opacity="0.9"/>
    <circle cx="-55" cy="45" r="2" fill="#10b981" opacity="0.9"/>
    <circle cx="-50" cy="45" r="2" fill="#fbbf24" opacity="0.9"/>
    
    <!-- Крепления -->
    <rect x="-85" y="-30" width="8" height="60" rx="4" fill="#666" opacity="0.8"/>
    <rect x="77" y="-30" width="8" height="60" rx="4" fill="#666" opacity="0.8"/>
  </g>
</svg>