<svg width="400" height="300" viewBox="0 0 400 300" fill="none" xmlns="http://www.w3.org/2000/svg">
  <rect width="400" height="300" fill="url(#gradient22)"/>
  <defs>
    <linearGradient id="gradient22" x1="0%" y1="0%" x2="100%" y2="100%">
      <stop offset="0%" style="stop-color:#047857;stop-opacity:1" />
      <stop offset="100%" style="stop-color:#065F46;stop-opacity:1" />
    </linearGradient>
  </defs>
  
  <!-- Иконка трибун и рэковых шкафов -->
  <g transform="translate(200, 150)">
    <!-- Трибуна -->
    <g transform="translate(-40, -10)">
      <rect x="-15" y="-20" width="30" height="25" rx="3" fill="white" opacity="0.9"/>
      <rect x="-12" y="-17" width="24" height="19" rx="2" fill="#1a1a1a"/>
      
      <!-- Микрофон на трибуне -->
      <line x1="0" y1="-17" x2="0" y2="-30" stroke="white" stroke-width="2" opacity="0.8"/>
      <circle cx="0" cy="-30" r="3" fill="white" opacity="0.9"/>
      <circle cx="0" cy="-30" r="1.5" fill="#1a1a1a"/>
      
      <!-- Ножки трибуны -->
      <rect x="-12" y="5" width="3" height="15" rx="1" fill="white" opacity="0.8"/>
      <rect x="9" y="5" width="3" height="15" rx="1" fill="white" opacity="0.8"/>
      
      <!-- Полка на трибуне -->
      <rect x="-10" y="-5" width="20" height="2" rx="1" fill="white" opacity="0.7"/>
    </g>
    
    <!-- Рэковый шкаф -->
    <g transform="translate(30, -10)">
      <rect x="-12" y="-25" width="24" height="40" rx="2" fill="white" opacity="0.9"/>
      <rect x="-10" y="-23" width="20" height="36" rx="1" fill="#1a1a1a"/>
      
      <!-- Рэковые единицы -->
      <rect x="-8" y="-20" width="16" height="4" rx="1" fill="white" opacity="0.7"/>
      <rect x="-8" y="-14" width="16" height="4" rx="1" fill="white" opacity="0.7"/>
      <rect x="-8" y="-8" width="16" height="4" rx="1" fill="white" opacity="0.7"/>
      <rect x="-8" y="-2" width="16" height="4" rx="1" fill="white" opacity="0.7"/>
      <rect x="-8" y="4" width="16" height="4" rx="1" fill="white" opacity="0.7"/>
      
      <!-- Оборудование в шкафу -->
      <rect x="-6" y="-19" width="12" height="2" rx="1" fill="#047857" opacity="0.7"/>
      <circle cx="-4" cy="-18" r="0.5" fill="#10b981" opacity="0.8"/>
      <circle cx="4" cy="-18" r="0.5" fill="#ef4444" opacity="0.8"/>
      
      <rect x="-6" y="-13" width="12" height="2" rx="1" fill="#047857" opacity="0.7"/>
      <circle cx="-4" cy="-12" r="0.5" fill="#10b981" opacity="0.8"/>
      <circle cx="4" cy="-12" r="0.5" fill="#ef4444" opacity="0.8"/>
      
      <!-- Вентиляционные отверстия -->
      <g transform="translate(0, 8)">
        <rect x="-6" y="0" width="12" height="1" rx="0.5" fill="white" opacity="0.3"/>
        <rect x="-6" y="2" width="12" height="1" rx="0.5" fill="white" opacity="0.3"/>
        <rect x="-6" y="4" width="12" height="1" rx="0.5" fill="white" opacity="0.3"/>
      </g>
      
      <!-- Ножки шкафа -->
      <rect x="-10" y="15" width="2" height="5" rx="1" fill="white" opacity="0.8"/>
      <rect x="8" y="15" width="2" height="5" rx="1" fill="white" opacity="0.8"/>
    </g>
    
    <!-- Переносная трибуна -->
    <g transform="translate(-40, 30)">
      <rect x="-12" y="-10" width="24" height="15" rx="2" fill="white" opacity="0.8"/>
      <rect x="-10" y="-8" width="20" height="11" rx="1" fill="#1a1a1a"/>
      
      <!-- Ручка для переноски -->
      <rect x="-3" y="-12" width="6" height="4" rx="2" fill="white" opacity="0.7"/>
      <rect x="-2" y="-10" width="4" height="2" rx="1" fill="#1a1a1a"/>
      
      <!-- Колеса -->
      <circle cx="-8" cy="5" r="2" fill="white" opacity="0.7"/>
      <circle cx="8" cy="5" r="2" fill="white" opacity="0.7"/>
    </g>
    
    <!-- Настенный рэковый шкаф -->
    <g transform="translate(30, 30)">
      <rect x="-10" y="-8" width="20" height="16" rx="2" fill="white" opacity="0.8"/>
      <rect x="-8" y="-6" width="16" height="12" rx="1" fill="#1a1a1a"/>
      
      <!-- Крепление к стене -->
      <rect x="-2" y="-10" width="4" height="4" rx="1" fill="white" opacity="0.7"/>
      <circle cx="0" cy="-8" r="1" fill="#1a1a1a"/>
      
      <!-- Оборудование -->
      <rect x="-6" y="-4" width="12" height="2" rx="1" fill="#047857" opacity="0.7"/>
      <rect x="-6" y="0" width="12" height="2" rx="1" fill="#047857" opacity="0.7"/>
      <rect x="-6" y="4" width="12" height="2" rx="1" fill="#047857" opacity="0.7"/>
    </g>
    
    <!-- Дополнительные аксессуары -->
    <g transform="translate(0, 0)">
      <!-- Кабельный органайзер -->
      <rect x="-8" y="-2" width="16" height="4" rx="2" fill="white" opacity="0.7"/>
      <circle cx="-4" cy="0" r="1" fill="#1a1a1a"/>
      <circle cx="0" cy="0" r="1" fill="#1a1a1a"/>
      <circle cx="4" cy="0" r="1" fill="#1a1a1a"/>
      
      <!-- Петли для кабелей -->
      <circle cx="-10" cy="0" r="1.5" fill="white" opacity="0.6"/>
      <circle cx="10" cy="0" r="1.5" fill="white" opacity="0.6"/>
    </g>
  </g>
  
  
</svg>