<svg width="400" height="300" viewBox="0 0 400 300" fill="none" xmlns="http://www.w3.org/2000/svg">
  <rect width="400" height="300" fill="url(#gradient14)"/>
  <defs>
    <linearGradient id="gradient14" x1="0%" y1="0%" x2="100%" y2="100%">
      <stop offset="0%" style="stop-color:#047857;stop-opacity:1" />
      <stop offset="100%" style="stop-color:#065F46;stop-opacity:1" />
    </linearGradient>
  </defs>
  
  <!-- Иконка системы озвучивания -->
  <g transform="translate(200, 150)">
    <!-- Микшерный пульт -->
    <rect x="-60" y="-30" width="120" height="60" rx="8" fill="white" opacity="0.9"/>
    <rect x="-55" y="-25" width="110" height="50" rx="5" fill="#1a1a1a"/>
    
    <!-- Фейдеры на микшере -->
    <rect x="-45" y="-20" width="4" height="30" rx="2" fill="#333"/>
    <rect x="-44" y="-10" width="2" height="10" rx="1" fill="#047857"/>
    
    <rect x="-35" y="-20" width="4" height="30" rx="2" fill="#333"/>
    <rect x="-34" y="-5" width="2" height="10" rx="1" fill="#047857"/>
    
    <rect x="-25" y="-20" width="4" height="30" rx="2" fill="#333"/>
    <rect x="-24" y="-15" width="2" height="10" rx="1" fill="#047857"/>
    
    <rect x="-15" y="-20" width="4" height="30" rx="2" fill="#333"/>
    <rect x="-14" y="-8" width="2" height="10" rx="1" fill="#047857"/>
    
    <rect x="-5" y="-20" width="4" height="30" rx="2" fill="#333"/>
    <rect x="-4" y="-12" width="2" height="10" rx="1" fill="#047857"/>
    
    <rect x="5" y="-20" width="4" height="30" rx="2" fill="#333"/>
    <rect x="6" y="-6" width="2" height="10" rx="1" fill="#047857"/>
    
    <rect x="15" y="-20" width="4" height="30" rx="2" fill="#333"/>
    <rect x="16" y="-14" width="2" height="10" rx="1" fill="#047857"/>
    
    <rect x="25" y="-20" width="4" height="30" rx="2" fill="#333"/>
    <rect x="26" y="-9" width="2" height="10" rx="1" fill="#047857"/>
    
    <rect x="35" y="-20" width="4" height="30" rx="2" fill="#333"/>
    <rect x="36" y="-11" width="2" height="10" rx="1" fill="#047857"/>
    
    <!-- Кнопки на микшере -->
    <circle cx="-45" cy="15" r="3" fill="#dc2626" opacity="0.8"/>
    <circle cx="-35" cy="15" r="3" fill="#10b981" opacity="0.8"/>
    <circle cx="-25" cy="15" r="3" fill="#fbbf24" opacity="0.8"/>
    
    <!-- Индикаторы -->
    <rect x="10" y="10" width="30" height="8" rx="2" fill="#333"/>
    <rect x="12" y="12" width="3" height="4" rx="1" fill="#10b981"/>
    <rect x="16" y="12" width="3" height="4" rx="1" fill="#10b981"/>
    <rect x="20" y="12" width="3" height="4" rx="1" fill="#fbbf24"/>
    <rect x="24" y="12" width="3" height="4" rx="1" fill="#10b981"/>
    <rect x="28" y="12" width="3" height="4" rx="1" fill="#10b981"/>
    <rect x="32" y="12" width="3" height="4" rx="1" fill="#dc2626"/>
    <rect x="36" y="12" width="3" height="4" rx="1" fill="#dc2626"/>
    
    <!-- Акустическая колонка слева -->
    <rect x="-90" y="-40" width="20" height="80" rx="5" fill="white" opacity="0.9"/>
    <rect x="-87" y="-37" width="14" height="74" rx="3" fill="#1a1a1a"/>
    
    <!-- Динамик в колонке -->
    <circle cx="-80" cy="-20" r="6" fill="#333"/>
    <circle cx="-80" cy="-20" r="4" fill="#666"/>
    <circle cx="-80" cy="-20" r="2" fill="#1a1a1a"/>
    
    <circle cx="-80" cy="0" r="8" fill="#333"/>
    <circle cx="-80" cy="0" r="6" fill="#666"/>
    <circle cx="-80" cy="0" r="3" fill="#1a1a1a"/>
    
    <circle cx="-80" cy="25" r="6" fill="#333"/>
    <circle cx="-80" cy="25" r="4" fill="#666"/>
    <circle cx="-80" cy="25" r="2" fill="#1a1a1a"/>
    
    <!-- Акустическая колонка справа -->
    <rect x="70" y="-40" width="20" height="80" rx="5" fill="white" opacity="0.9"/>
    <rect x="73" y="-37" width="14" height="74" rx="3" fill="#1a1a1a"/>
    
    <!-- Динамик в колонке -->
    <circle cx="80" cy="-20" r="6" fill="#333"/>
    <circle cx="80" cy="-20" r="4" fill="#666"/>
    <circle cx="80" cy="-20" r="2" fill="#1a1a1a"/>
    
    <circle cx="80" cy="0" r="8" fill="#333"/>
    <circle cx="80" cy="0" r="6" fill="#666"/>
    <circle cx="80" cy="0" r="3" fill="#1a1a1a"/>
    
    <circle cx="80" cy="25" r="6" fill="#333"/>
    <circle cx="80" cy="25" r="4" fill="#666"/>
    <circle cx="80" cy="25" r="2" fill="#1a1a1a"/>
    
    <!-- Кабели подключения -->
    <path d="M -70 20 Q -50 25, -30 20" stroke="white" stroke-width="3" fill="none" opacity="0.7"/>
    <path d="M 70 20 Q 50 25, 30 20" stroke="white" stroke-width="3" fill="none" opacity="0.7"/>
  </g>
</svg>