<svg width="400" height="300" viewBox="0 0 400 300" fill="none" xmlns="http://www.w3.org/2000/svg">
  <rect width="400" height="300" fill="url(#gradient1)"/>
  <defs>
    <linearGradient id="gradient1" x1="0%" y1="0%" x2="100%" y2="100%">
      <stop offset="0%" style="stop-color:#047857;stop-opacity:1" />
      <stop offset="100%" style="stop-color:#065F46;stop-opacity:1" />
    </linearGradient>
  </defs>
  
  <!-- Иконка системы синхронного перевода -->
  <g transform="translate(200, 150)">
    <!-- Центральный узел -->
    <circle cx="0" cy="0" r="20" fill="white" opacity="0.9"/>
    <circle cx="0" cy="0" r="15" fill="#047857"/>
    
    <!-- Наушники -->
    <path d="M -60 -30 C -60 -50, -40 -60, -20 -60 L 20 -60 C 40 -60, 60 -50, 60 -30" 
          stroke="white" stroke-width="4" fill="none" opacity="0.8"/>
    <rect x="-65" y="-30" width="20" height="30" rx="5" fill="white" opacity="0.8"/>
    <rect x="45" y="-30" width="20" height="30" rx="5" fill="white" opacity="0.8"/>
    
    <!-- Микрофон -->
    <rect x="-5" y="-80" width="10" height="25" rx="5" fill="white" opacity="0.8"/>
    <line x1="0" y1="-55" x2="0" y2="-40" stroke="white" stroke-width="2" opacity="0.8"/>
    
    <!-- Волны сигнала -->
    <path d="M -80 0 Q -60 -20, -40 0" stroke="white" stroke-width="2" fill="none" opacity="0.6"/>
    <path d="M 40 0 Q 60 -20, 80 0" stroke="white" stroke-width="2" fill="none" opacity="0.6"/>
    <path d="M -90 10 Q -60 -15, -30 10" stroke="white" stroke-width="2" fill="none" opacity="0.4"/>
    <path d="M 30 10 Q 60 -15, 90 10" stroke="white" stroke-width="2" fill="none" opacity="0.4"/>
  </g>
  
  
</svg>