<svg width="400" height="300" viewBox="0 0 400 300" fill="none" xmlns="http://www.w3.org/2000/svg">
  <rect width="400" height="300" fill="url(#gradient2)"/>
  <defs>
    <linearGradient id="gradient2" x1="0%" y1="0%" x2="100%" y2="100%">
      <stop offset="0%" style="stop-color:#065F46;stop-opacity:1" />
      <stop offset="100%" style="stop-color:#047857;stop-opacity:1" />
    </linearGradient>
  </defs>
  
  <!-- Иконка видеоконференцсвязи -->
  <g transform="translate(200, 150)">
    <!-- Экран -->
    <rect x="-80" y="-60" width="160" height="100" rx="8" fill="white" opacity="0.9"/>
    <rect x="-75" y="-55" width="150" height="90" rx="5" fill="#1a1a1a"/>
    
    <!-- Участники на экране -->
    <rect x="-70" y="-50" width="45" height="35" rx="3" fill="#333"/>
    <circle cx="-47" cy="-35" r="8" fill="#666"/>
    <rect x="-55" y="-25" width="16" height="8" rx="2" fill="#666"/>
    
    <rect x="-20" y="-50" width="45" height="35" rx="3" fill="#333"/>
    <circle cx="3" cy="-35" r="8" fill="#666"/>
    <rect x="-5" y="-25" width="16" height="8" rx="2" fill="#666"/>
    
    <rect x="30" y="-50" width="40" height="35" rx="3" fill="#333"/>
    <circle cx="50" cy="-35" r="8" fill="#666"/>
    <rect x="42" y="-25" width="16" height="8" rx="2" fill="#666"/>
    
    <!-- Камера -->
    <rect x="-10" y="45" width="20" height="15" rx="3" fill="white" opacity="0.8"/>
    <circle cx="0" cy="52" r="5" fill="#047857"/>
    <polygon points="8,50 15,47 15,57" fill="white" opacity="0.8"/>
    
    <!-- Микрофон -->
    <rect x="-3" y="65" width="6" height="12" rx="3" fill="white" opacity="0.8"/>
    <line x1="0" y1="77" x2="0" y2="85" stroke="white" stroke-width="2" opacity="0.8"/>
    
    <!-- Волны -->
    <path d="M -30 90 Q -20 85, -10 90" stroke="white" stroke-width="2" fill="none" opacity="0.6"/>
    <path d="M 10 90 Q 20 85, 30 90" stroke="white" stroke-width="2" fill="none" opacity="0.6"/>
  </g>
  
  
</svg>